<mxfile host="app.diagrams.net" modified="2023-10-01T08:02:44.956Z" agent="Mozilla/5.0 (Windows NT 10.0; Win64; x64) AppleWebKit/537.36 (KHTML, like Gecko) Chrome/116.0.0.0 Safari/537.36" etag="mfsgikOh07Zt7xOJk5o3" version="21.8.2" type="device">
  <diagram id="R2lEEEUBdFMjLlhIrx00" name="Page-1">
    <mxGraphModel dx="794" dy="432" grid="1" gridSize="10" guides="1" tooltips="1" connect="1" arrows="1" fold="1" page="1" pageScale="1" pageWidth="850" pageHeight="1100" math="0" shadow="0" extFonts="Permanent Marker^https://fonts.googleapis.com/css?family=Permanent+Marker">
      <root>
        <mxCell id="0" />
        <mxCell id="1" parent="0" />
        <mxCell id="9w8znOmrVYcYDQZiBDMg-1" value="Оборудование" style="rounded=0;whiteSpace=wrap;html=1;" parent="1" vertex="1">
          <mxGeometry x="135" y="210" width="120" height="60" as="geometry" />
        </mxCell>
        <mxCell id="uGJrcFhjV6rVuHY0PAc0-3" style="edgeStyle=orthogonalEdgeStyle;rounded=0;orthogonalLoop=1;jettySize=auto;html=1;exitX=0.5;exitY=0;exitDx=0;exitDy=0;entryX=0.5;entryY=1;entryDx=0;entryDy=0;endArrow=none;endFill=0;" parent="1" source="9w8znOmrVYcYDQZiBDMg-2" target="uGJrcFhjV6rVuHY0PAc0-2" edge="1">
          <mxGeometry relative="1" as="geometry" />
        </mxCell>
        <mxCell id="9w8znOmrVYcYDQZiBDMg-2" value="Подразделение" style="rounded=0;whiteSpace=wrap;html=1;" parent="1" vertex="1">
          <mxGeometry x="490" y="210" width="120" height="60" as="geometry" />
        </mxCell>
        <mxCell id="9w8znOmrVYcYDQZiBDMg-3" value="Материально ответственное лицо" style="rounded=0;whiteSpace=wrap;html=1;" parent="1" vertex="1">
          <mxGeometry x="490" y="410" width="120" height="60" as="geometry" />
        </mxCell>
        <mxCell id="9w8znOmrVYcYDQZiBDMg-17" style="orthogonalLoop=1;jettySize=auto;html=1;exitX=1;exitY=1;exitDx=0;exitDy=0;entryX=0;entryY=0.25;entryDx=0;entryDy=0;rounded=0;endArrow=none;endFill=0;" parent="1" source="9w8znOmrVYcYDQZiBDMg-4" target="9w8znOmrVYcYDQZiBDMg-1" edge="1">
          <mxGeometry relative="1" as="geometry" />
        </mxCell>
        <mxCell id="9w8znOmrVYcYDQZiBDMg-4" value="&lt;u&gt;Ключ оборудования&lt;/u&gt;" style="ellipse;whiteSpace=wrap;html=1;" parent="1" vertex="1">
          <mxGeometry x="5" y="130" width="100" height="60" as="geometry" />
        </mxCell>
        <mxCell id="9w8znOmrVYcYDQZiBDMg-5" value="&lt;u&gt;Ключ м.о.л&lt;/u&gt;" style="ellipse;whiteSpace=wrap;html=1;" parent="1" vertex="1">
          <mxGeometry x="660" y="410" width="100" height="60" as="geometry" />
        </mxCell>
        <mxCell id="9w8znOmrVYcYDQZiBDMg-6" value="&lt;u&gt;Ключ подразделения&lt;/u&gt;" style="ellipse;whiteSpace=wrap;html=1;" parent="1" vertex="1">
          <mxGeometry x="680" y="170" width="100" height="60" as="geometry" />
        </mxCell>
        <mxCell id="9w8znOmrVYcYDQZiBDMg-8" value="Название" style="ellipse;whiteSpace=wrap;html=1;" parent="1" vertex="1">
          <mxGeometry x="5" y="210" width="100" height="60" as="geometry" />
        </mxCell>
        <mxCell id="9w8znOmrVYcYDQZiBDMg-9" value="Стоимость" style="ellipse;whiteSpace=wrap;html=1;" parent="1" vertex="1">
          <mxGeometry x="5" y="290" width="100" height="60" as="geometry" />
        </mxCell>
        <mxCell id="9w8znOmrVYcYDQZiBDMg-16" value="Фамилия" style="ellipse;whiteSpace=wrap;html=1;" parent="1" vertex="1">
          <mxGeometry x="380" y="540" width="100" height="60" as="geometry" />
        </mxCell>
        <mxCell id="9w8znOmrVYcYDQZiBDMg-18" style="orthogonalLoop=1;jettySize=auto;html=1;exitX=1;exitY=0.5;exitDx=0;exitDy=0;entryX=0;entryY=0.5;entryDx=0;entryDy=0;rounded=0;endArrow=none;endFill=0;" parent="1" source="9w8znOmrVYcYDQZiBDMg-8" target="9w8znOmrVYcYDQZiBDMg-1" edge="1">
          <mxGeometry relative="1" as="geometry">
            <mxPoint x="120.40000778540224" y="191.1863682958089" as="sourcePoint" />
            <mxPoint x="145" y="235" as="targetPoint" />
          </mxGeometry>
        </mxCell>
        <mxCell id="9w8znOmrVYcYDQZiBDMg-19" style="orthogonalLoop=1;jettySize=auto;html=1;exitX=1;exitY=0;exitDx=0;exitDy=0;entryX=0;entryY=0.75;entryDx=0;entryDy=0;rounded=0;endArrow=none;endFill=0;" parent="1" source="9w8znOmrVYcYDQZiBDMg-9" target="9w8znOmrVYcYDQZiBDMg-1" edge="1">
          <mxGeometry relative="1" as="geometry">
            <mxPoint x="130.40000778540224" y="201.1863682958089" as="sourcePoint" />
            <mxPoint x="155" y="245" as="targetPoint" />
          </mxGeometry>
        </mxCell>
        <mxCell id="9w8znOmrVYcYDQZiBDMg-20" style="orthogonalLoop=1;jettySize=auto;html=1;exitX=0;exitY=1;exitDx=0;exitDy=0;entryX=1;entryY=0.5;entryDx=0;entryDy=0;rounded=0;endArrow=none;endFill=0;" parent="1" source="9w8znOmrVYcYDQZiBDMg-6" target="9w8znOmrVYcYDQZiBDMg-2" edge="1">
          <mxGeometry relative="1" as="geometry">
            <mxPoint x="95.40000778540224" y="261.1863682958089" as="sourcePoint" />
            <mxPoint x="120" y="305" as="targetPoint" />
          </mxGeometry>
        </mxCell>
        <mxCell id="9w8znOmrVYcYDQZiBDMg-24" style="orthogonalLoop=1;jettySize=auto;html=1;exitX=0.5;exitY=0;exitDx=0;exitDy=0;rounded=0;endArrow=none;endFill=0;entryX=0.25;entryY=1;entryDx=0;entryDy=0;" parent="1" source="9w8znOmrVYcYDQZiBDMg-16" target="9w8znOmrVYcYDQZiBDMg-3" edge="1">
          <mxGeometry relative="1" as="geometry">
            <mxPoint x="410" y="540" as="sourcePoint" />
            <mxPoint x="550" y="460" as="targetPoint" />
          </mxGeometry>
        </mxCell>
        <mxCell id="9w8znOmrVYcYDQZiBDMg-25" style="orthogonalLoop=1;jettySize=auto;html=1;rounded=0;endArrow=none;endFill=0;entryX=1;entryY=0.5;entryDx=0;entryDy=0;exitX=0;exitY=0.5;exitDx=0;exitDy=0;" parent="1" source="9w8znOmrVYcYDQZiBDMg-5" target="9w8znOmrVYcYDQZiBDMg-3" edge="1">
          <mxGeometry relative="1" as="geometry">
            <mxPoint x="640" y="440" as="sourcePoint" />
            <mxPoint x="840" y="430" as="targetPoint" />
          </mxGeometry>
        </mxCell>
        <mxCell id="9w8znOmrVYcYDQZiBDMg-30" value="Имеет" style="rhombus;whiteSpace=wrap;html=1;" parent="1" vertex="1">
          <mxGeometry x="310" y="210" width="120" height="60" as="geometry" />
        </mxCell>
        <mxCell id="9w8znOmrVYcYDQZiBDMg-32" style="orthogonalLoop=1;jettySize=auto;html=1;exitX=1;exitY=0.5;exitDx=0;exitDy=0;entryX=0;entryY=0.5;entryDx=0;entryDy=0;rounded=0;endArrow=none;endFill=0;" parent="1" source="9w8znOmrVYcYDQZiBDMg-1" target="9w8znOmrVYcYDQZiBDMg-30" edge="1">
          <mxGeometry relative="1" as="geometry">
            <mxPoint x="70.35533905932539" y="338.7867965644049" as="sourcePoint" />
            <mxPoint x="315" y="240" as="targetPoint" />
          </mxGeometry>
        </mxCell>
        <mxCell id="9w8znOmrVYcYDQZiBDMg-33" style="orthogonalLoop=1;jettySize=auto;html=1;entryX=0;entryY=0.5;entryDx=0;entryDy=0;rounded=0;endArrow=none;endFill=0;" parent="1" source="9w8znOmrVYcYDQZiBDMg-30" target="9w8znOmrVYcYDQZiBDMg-2" edge="1">
          <mxGeometry relative="1" as="geometry">
            <mxPoint x="415" y="240" as="sourcePoint" />
            <mxPoint x="305" y="249.9999999999999" as="targetPoint" />
          </mxGeometry>
        </mxCell>
        <mxCell id="9w8znOmrVYcYDQZiBDMg-34" style="orthogonalLoop=1;jettySize=auto;html=1;entryX=0.5;entryY=0;entryDx=0;entryDy=0;rounded=0;endArrow=none;endFill=0;exitX=0.5;exitY=1;exitDx=0;exitDy=0;" parent="1" source="9w8znOmrVYcYDQZiBDMg-2" target="mlbT_iEaT-s_BB8PwxeC-1" edge="1">
          <mxGeometry relative="1" as="geometry">
            <mxPoint x="460" y="280" as="sourcePoint" />
            <mxPoint x="200" y="330" as="targetPoint" />
          </mxGeometry>
        </mxCell>
        <mxCell id="9w8znOmrVYcYDQZiBDMg-35" style="orthogonalLoop=1;jettySize=auto;html=1;entryX=0.5;entryY=1;entryDx=0;entryDy=0;rounded=0;endArrow=none;endFill=0;exitX=0.5;exitY=0;exitDx=0;exitDy=0;" parent="1" source="9w8znOmrVYcYDQZiBDMg-3" target="mlbT_iEaT-s_BB8PwxeC-1" edge="1">
          <mxGeometry relative="1" as="geometry">
            <mxPoint x="499.9999999999998" y="450" as="sourcePoint" />
            <mxPoint x="499.9999999999998" y="490" as="targetPoint" />
          </mxGeometry>
        </mxCell>
        <mxCell id="9w8znOmrVYcYDQZiBDMg-39" value="&lt;span style=&quot;font-weight: normal;&quot;&gt;&lt;font style=&quot;font-size: 16px;&quot;&gt;1&lt;/font&gt;&lt;/span&gt;" style="text;strokeColor=none;fillColor=none;html=1;fontSize=24;fontStyle=1;verticalAlign=middle;align=center;" parent="1" vertex="1">
          <mxGeometry x="500" y="370" width="50" height="30" as="geometry" />
        </mxCell>
        <mxCell id="9w8znOmrVYcYDQZiBDMg-40" value="&lt;span style=&quot;font-weight: normal;&quot;&gt;&lt;font style=&quot;font-size: 16px;&quot;&gt;1&lt;/font&gt;&lt;/span&gt;" style="text;strokeColor=none;fillColor=none;html=1;fontSize=24;fontStyle=1;verticalAlign=middle;align=center;" parent="1" vertex="1">
          <mxGeometry x="500" y="280" width="50" height="30" as="geometry" />
        </mxCell>
        <mxCell id="9w8znOmrVYcYDQZiBDMg-41" value="&lt;span style=&quot;font-weight: normal;&quot;&gt;&lt;font style=&quot;font-size: 16px;&quot;&gt;N&lt;/font&gt;&lt;/span&gt;" style="text;strokeColor=none;fillColor=none;html=1;fontSize=24;fontStyle=1;verticalAlign=middle;align=center;" parent="1" vertex="1">
          <mxGeometry x="260" y="210" width="50" height="30" as="geometry" />
        </mxCell>
        <mxCell id="9w8znOmrVYcYDQZiBDMg-42" value="&lt;span style=&quot;font-size: 16px; font-weight: 400;&quot;&gt;1&lt;/span&gt;" style="text;strokeColor=none;fillColor=none;html=1;fontSize=24;fontStyle=1;verticalAlign=middle;align=center;" parent="1" vertex="1">
          <mxGeometry x="430" y="210" width="50" height="30" as="geometry" />
        </mxCell>
        <mxCell id="9w8znOmrVYcYDQZiBDMg-46" style="edgeStyle=none;rounded=0;orthogonalLoop=1;jettySize=auto;html=1;exitX=0.5;exitY=0;exitDx=0;exitDy=0;entryX=0.5;entryY=1;entryDx=0;entryDy=0;fontSize=16;endArrow=none;endFill=0;" parent="1" source="9w8znOmrVYcYDQZiBDMg-43" target="9w8znOmrVYcYDQZiBDMg-3" edge="1">
          <mxGeometry relative="1" as="geometry" />
        </mxCell>
        <mxCell id="9w8znOmrVYcYDQZiBDMg-43" value="Имя" style="ellipse;whiteSpace=wrap;html=1;" parent="1" vertex="1">
          <mxGeometry x="500" y="540" width="100" height="60" as="geometry" />
        </mxCell>
        <mxCell id="9w8znOmrVYcYDQZiBDMg-47" style="edgeStyle=none;rounded=0;orthogonalLoop=1;jettySize=auto;html=1;exitX=0.5;exitY=0;exitDx=0;exitDy=0;entryX=0.75;entryY=1;entryDx=0;entryDy=0;fontSize=16;endArrow=none;endFill=0;" parent="1" source="9w8znOmrVYcYDQZiBDMg-44" target="9w8znOmrVYcYDQZiBDMg-3" edge="1">
          <mxGeometry relative="1" as="geometry" />
        </mxCell>
        <mxCell id="9w8znOmrVYcYDQZiBDMg-44" value="Отчество" style="ellipse;whiteSpace=wrap;html=1;" parent="1" vertex="1">
          <mxGeometry x="620" y="540" width="100" height="60" as="geometry" />
        </mxCell>
        <mxCell id="9w8znOmrVYcYDQZiBDMg-45" style="edgeStyle=none;rounded=0;orthogonalLoop=1;jettySize=auto;html=1;exitX=1;exitY=1;exitDx=0;exitDy=0;fontSize=16;endArrow=none;endFill=0;" parent="1" source="9w8znOmrVYcYDQZiBDMg-43" target="9w8znOmrVYcYDQZiBDMg-43" edge="1">
          <mxGeometry relative="1" as="geometry" />
        </mxCell>
        <mxCell id="Kpsl2LN42cwl2Ot_tAvz-2" style="edgeStyle=orthogonalEdgeStyle;rounded=0;orthogonalLoop=1;jettySize=auto;html=1;exitX=0.5;exitY=1;exitDx=0;exitDy=0;entryX=0.5;entryY=0;entryDx=0;entryDy=0;endArrow=none;endFill=0;" parent="1" source="Kpsl2LN42cwl2Ot_tAvz-1" target="9w8znOmrVYcYDQZiBDMg-1" edge="1">
          <mxGeometry relative="1" as="geometry" />
        </mxCell>
        <mxCell id="Kpsl2LN42cwl2Ot_tAvz-1" value="Списано" style="ellipse;whiteSpace=wrap;html=1;" parent="1" vertex="1">
          <mxGeometry x="145" y="130" width="100" height="60" as="geometry" />
        </mxCell>
        <mxCell id="EVz5ZKpP0ViFdTxWdRIb-4" style="rounded=0;orthogonalLoop=1;jettySize=auto;html=1;exitX=0;exitY=0;exitDx=0;exitDy=0;endArrow=none;endFill=0;" parent="1" source="EVz5ZKpP0ViFdTxWdRIb-1" edge="1">
          <mxGeometry relative="1" as="geometry">
            <mxPoint x="610" y="240" as="targetPoint" />
          </mxGeometry>
        </mxCell>
        <mxCell id="EVz5ZKpP0ViFdTxWdRIb-1" value="Название" style="ellipse;whiteSpace=wrap;html=1;" parent="1" vertex="1">
          <mxGeometry x="680" y="250" width="100" height="60" as="geometry" />
        </mxCell>
        <mxCell id="mlbT_iEaT-s_BB8PwxeC-1" value="Относится" style="rhombus;whiteSpace=wrap;html=1;" parent="1" vertex="1">
          <mxGeometry x="490" y="310" width="120" height="60" as="geometry" />
        </mxCell>
        <mxCell id="uGJrcFhjV6rVuHY0PAc0-1" value="Вид подразделения" style="rounded=0;whiteSpace=wrap;html=1;" parent="1" vertex="1">
          <mxGeometry x="490" y="10" width="120" height="60" as="geometry" />
        </mxCell>
        <mxCell id="uGJrcFhjV6rVuHY0PAc0-4" style="edgeStyle=orthogonalEdgeStyle;rounded=0;orthogonalLoop=1;jettySize=auto;html=1;exitX=0.5;exitY=0;exitDx=0;exitDy=0;entryX=0.5;entryY=1;entryDx=0;entryDy=0;endArrow=none;endFill=0;" parent="1" source="uGJrcFhjV6rVuHY0PAc0-2" target="uGJrcFhjV6rVuHY0PAc0-1" edge="1">
          <mxGeometry relative="1" as="geometry" />
        </mxCell>
        <mxCell id="uGJrcFhjV6rVuHY0PAc0-2" value="Относится" style="rhombus;whiteSpace=wrap;html=1;" parent="1" vertex="1">
          <mxGeometry x="490" y="110" width="120" height="60" as="geometry" />
        </mxCell>
        <mxCell id="uGJrcFhjV6rVuHY0PAc0-7" style="edgeStyle=orthogonalEdgeStyle;rounded=0;orthogonalLoop=1;jettySize=auto;html=1;exitX=1;exitY=0.5;exitDx=0;exitDy=0;entryX=0;entryY=0.5;entryDx=0;entryDy=0;endArrow=none;endFill=0;" parent="1" source="uGJrcFhjV6rVuHY0PAc0-5" target="uGJrcFhjV6rVuHY0PAc0-1" edge="1">
          <mxGeometry relative="1" as="geometry" />
        </mxCell>
        <mxCell id="uGJrcFhjV6rVuHY0PAc0-5" value="&lt;u&gt;Ключ вида подразделения&lt;/u&gt;" style="ellipse;whiteSpace=wrap;html=1;" parent="1" vertex="1">
          <mxGeometry x="360" y="10" width="100" height="60" as="geometry" />
        </mxCell>
        <mxCell id="uGJrcFhjV6rVuHY0PAc0-8" style="edgeStyle=orthogonalEdgeStyle;shape=connector;rounded=0;orthogonalLoop=1;jettySize=auto;html=1;exitX=0;exitY=0.5;exitDx=0;exitDy=0;entryX=1;entryY=0.5;entryDx=0;entryDy=0;labelBackgroundColor=default;strokeColor=default;fontFamily=Helvetica;fontSize=11;fontColor=default;endArrow=none;endFill=0;" parent="1" source="uGJrcFhjV6rVuHY0PAc0-6" target="uGJrcFhjV6rVuHY0PAc0-1" edge="1">
          <mxGeometry relative="1" as="geometry" />
        </mxCell>
        <mxCell id="uGJrcFhjV6rVuHY0PAc0-6" value="Название" style="ellipse;whiteSpace=wrap;html=1;" parent="1" vertex="1">
          <mxGeometry x="640" y="10" width="100" height="60" as="geometry" />
        </mxCell>
        <mxCell id="uGJrcFhjV6rVuHY0PAc0-9" value="&lt;span style=&quot;font-size: 16px; font-weight: 400;&quot;&gt;N&lt;/span&gt;" style="text;strokeColor=none;fillColor=none;html=1;fontSize=24;fontStyle=1;verticalAlign=middle;align=center;" parent="1" vertex="1">
          <mxGeometry x="500" y="170" width="50" height="30" as="geometry" />
        </mxCell>
        <mxCell id="uGJrcFhjV6rVuHY0PAc0-10" value="&lt;span style=&quot;font-weight: normal;&quot;&gt;&lt;font style=&quot;font-size: 16px;&quot;&gt;1&lt;/font&gt;&lt;/span&gt;" style="text;strokeColor=none;fillColor=none;html=1;fontSize=24;fontStyle=1;verticalAlign=middle;align=center;" parent="1" vertex="1">
          <mxGeometry x="500" y="80" width="50" height="30" as="geometry" />
        </mxCell>
      </root>
    </mxGraphModel>
  </diagram>
</mxfile>
